<mxfile host="app.diagrams.net" agent="Mozilla/5.0 (Windows NT 10.0; Win64; x64) AppleWebKit/537.36 (KHTML, like Gecko) Chrome/133.0.0.0 Safari/537.36" version="26.0.14">
  <diagram name="Page-1" id="mGgqg3iUzusV6ww58vkA">
    <mxGraphModel dx="1050" dy="574" grid="0" gridSize="10" guides="1" tooltips="1" connect="1" arrows="1" fold="1" page="1" pageScale="1" pageWidth="827" pageHeight="1169" background="#000000" math="0" shadow="0">
      <root>
        <mxCell id="0" />
        <mxCell id="1" parent="0" />
        <mxCell id="Xpzv3_hOzGPlagTL2j7c-1" value="" style="rounded=0;whiteSpace=wrap;html=1;fillColor=none;strokeWidth=2;strokeColor=#FFFFFF;" vertex="1" parent="1">
          <mxGeometry x="41" y="91" width="763" height="345" as="geometry" />
        </mxCell>
        <mxCell id="Xpzv3_hOzGPlagTL2j7c-2" value="" style="rounded=0;whiteSpace=wrap;html=1;fillColor=none;strokeWidth=2;strokeColor=#FFFFFF;dashed=1;dashPattern=1 2;" vertex="1" parent="1">
          <mxGeometry x="69" y="219" width="351" height="173" as="geometry" />
        </mxCell>
        <mxCell id="Xpzv3_hOzGPlagTL2j7c-3" value="" style="rounded=0;whiteSpace=wrap;html=1;fillColor=none;strokeWidth=2;strokeColor=#FFFFFF;dashed=1;dashPattern=1 2;" vertex="1" parent="1">
          <mxGeometry x="445" y="217" width="351" height="173" as="geometry" />
        </mxCell>
        <mxCell id="Xpzv3_hOzGPlagTL2j7c-4" value="" style="image;aspect=fixed;perimeter=ellipsePerimeter;html=1;align=center;shadow=0;dashed=0;spacingTop=3;image=img/lib/active_directory/generic_server.svg;" vertex="1" parent="1">
          <mxGeometry x="583" y="238" width="52.64" height="94" as="geometry" />
        </mxCell>
        <mxCell id="Xpzv3_hOzGPlagTL2j7c-5" value="" style="image;aspect=fixed;perimeter=ellipsePerimeter;html=1;align=center;shadow=0;dashed=0;spacingTop=3;image=img/lib/active_directory/laptop_client.svg;" vertex="1" parent="1">
          <mxGeometry x="129" y="268" width="57.6" height="64" as="geometry" />
        </mxCell>
        <mxCell id="Xpzv3_hOzGPlagTL2j7c-6" value="" style="image;aspect=fixed;perimeter=ellipsePerimeter;html=1;align=center;shadow=0;dashed=0;spacingTop=3;image=img/lib/active_directory/laptop_client.svg;" vertex="1" parent="1">
          <mxGeometry x="213" y="242" width="57.6" height="64" as="geometry" />
        </mxCell>
        <mxCell id="Xpzv3_hOzGPlagTL2j7c-7" value="" style="image;aspect=fixed;perimeter=ellipsePerimeter;html=1;align=center;shadow=0;dashed=0;spacingTop=3;image=img/lib/active_directory/laptop_client.svg;" vertex="1" parent="1">
          <mxGeometry x="292" y="268" width="57.6" height="64" as="geometry" />
        </mxCell>
        <mxCell id="Xpzv3_hOzGPlagTL2j7c-8" value="&lt;font color=&quot;#ffffff&quot;&gt;Perimeter&lt;/font&gt;" style="text;html=1;align=center;verticalAlign=middle;resizable=0;points=[];autosize=1;strokeColor=none;fillColor=none;" vertex="1" parent="1">
          <mxGeometry x="51" y="95" width="70" height="26" as="geometry" />
        </mxCell>
        <mxCell id="Xpzv3_hOzGPlagTL2j7c-9" value="&lt;font color=&quot;#ffffff&quot;&gt;User subnet&lt;/font&gt;" style="text;html=1;align=center;verticalAlign=middle;resizable=0;points=[];autosize=1;strokeColor=none;fillColor=none;" vertex="1" parent="1">
          <mxGeometry x="63" y="217" width="83" height="26" as="geometry" />
        </mxCell>
        <mxCell id="Xpzv3_hOzGPlagTL2j7c-10" value="&lt;font color=&quot;#ffffff&quot;&gt;User 1&lt;/font&gt;" style="text;html=1;align=center;verticalAlign=middle;resizable=0;points=[];autosize=1;strokeColor=none;fillColor=none;" vertex="1" parent="1">
          <mxGeometry x="122" y="328" width="53" height="26" as="geometry" />
        </mxCell>
        <mxCell id="Xpzv3_hOzGPlagTL2j7c-11" value="&lt;font color=&quot;#ffffff&quot;&gt;User 2&lt;/font&gt;" style="text;html=1;align=center;verticalAlign=middle;resizable=0;points=[];autosize=1;strokeColor=none;fillColor=none;" vertex="1" parent="1">
          <mxGeometry x="210" y="306" width="53" height="26" as="geometry" />
        </mxCell>
        <mxCell id="Xpzv3_hOzGPlagTL2j7c-12" value="&lt;font color=&quot;#ffffff&quot;&gt;User 3&lt;/font&gt;" style="text;html=1;align=center;verticalAlign=middle;resizable=0;points=[];autosize=1;strokeColor=none;fillColor=none;" vertex="1" parent="1">
          <mxGeometry x="294.3" y="328" width="53" height="26" as="geometry" />
        </mxCell>
        <mxCell id="Xpzv3_hOzGPlagTL2j7c-13" value="&lt;font color=&quot;#ffffff&quot;&gt;Infra Subnet&lt;/font&gt;" style="text;html=1;align=center;verticalAlign=middle;resizable=0;points=[];autosize=1;strokeColor=none;fillColor=none;" vertex="1" parent="1">
          <mxGeometry x="445" y="219" width="83" height="26" as="geometry" />
        </mxCell>
        <mxCell id="Xpzv3_hOzGPlagTL2j7c-14" value="&lt;font color=&quot;#ffffff&quot;&gt;AD&lt;/font&gt;" style="text;html=1;align=center;verticalAlign=middle;resizable=0;points=[];autosize=1;strokeColor=none;fillColor=none;" vertex="1" parent="1">
          <mxGeometry x="589" y="335" width="35" height="26" as="geometry" />
        </mxCell>
      </root>
    </mxGraphModel>
  </diagram>
</mxfile>
